HIERARCHY
ROOT joint_Root
{
	OFFSET 0.0 0.0 0.0
	CHANNELS 6 Xposition Yposition Zposition Zrotation Xrotation Yrotation 
	JOINT Hips
	{
		OFFSET -17.1583 93.1646 452.98
		CHANNELS 6 Xposition Yposition Zposition Zrotation Xrotation Yrotation 
		JOINT Spine
		{
			OFFSET 15.7357 0.0 0.0
			CHANNELS 6 Xposition Yposition Zposition Zrotation Xrotation Yrotation 
			JOINT Chest
			{
				OFFSET 8.98455 -0.406207 0.0
				CHANNELS 6 Xposition Yposition Zposition Zrotation Xrotation Yrotation 
				JOINT Neck
				{
					OFFSET 16.3773 0.0 0.0
					CHANNELS 6 Xposition Yposition Zposition Zrotation Xrotation Yrotation 
					JOINT Head
					{
						OFFSET 6.45672 0.0 0.0
						CHANNELS 6 Xposition Yposition Zposition Zrotation Xrotation Yrotation 
						End Site
						{
							OFFSET 0.0 0.0 0.0
						}
					}
				}
				JOINT Shoulder_L
				{
					OFFSET 12.9942 -0.242716 4.98039
					CHANNELS 6 Xposition Yposition Zposition Zrotation Xrotation Yrotation 
					JOINT UpperArm_L
					{
						OFFSET 5.34809 0.0 0.0
						CHANNELS 6 Xposition Yposition Zposition Zrotation Xrotation Yrotation 
						JOINT LowerArm_L
						{
							OFFSET 24.3286 1.87007e-05 0.0
							CHANNELS 6 Xposition Yposition Zposition Zrotation Xrotation Yrotation 
							JOINT Hand_L
							{
								OFFSET 22.2916 0.0 0.0
								CHANNELS 6 Xposition Yposition Zposition Zrotation Xrotation Yrotation 
								End Site
								{
									OFFSET 0.0 0.0 0.0
								}
							}
						}
					}
				}
				JOINT Shoulder_R
				{
					OFFSET 12.9945 -0.242716 -4.98039
					CHANNELS 6 Xposition Yposition Zposition Zrotation Xrotation Yrotation 
					JOINT UpperArm_R
					{
						OFFSET -5.34813 0.0 0.0
						CHANNELS 6 Xposition Yposition Zposition Zrotation Xrotation Yrotation 
						JOINT LowerArm_R
						{
							OFFSET -24.3289 0.000322201 0.0
							CHANNELS 6 Xposition Yposition Zposition Zrotation Xrotation Yrotation 
							JOINT Hand_R
							{
								OFFSET -22.2915 -0.000108084 0.0
								CHANNELS 6 Xposition Yposition Zposition Zrotation Xrotation Yrotation 
								End Site
								{
									OFFSET 0.0 0.0 0.0
								}
							}
						}
					}
				}
			}
		}
		JOINT UpperLeg_L
		{
			OFFSET -2.19248 -6.46944 0.0
			CHANNELS 6 Xposition Yposition Zposition Zrotation Xrotation Yrotation 
			JOINT LowerLeg_L
			{
				OFFSET 39.0811 0.0 -1.23785e-05
				CHANNELS 6 Xposition Yposition Zposition Zrotation Xrotation Yrotation 
				JOINT Foot_L
				{
					OFFSET 40.9854 0.0 -1.26872e-05
					CHANNELS 6 Xposition Yposition Zposition Zrotation Xrotation Yrotation 
					JOINT Toes_L
					{
						OFFSET 11.7543 0.0 0.0
						CHANNELS 6 Xposition Yposition Zposition Zrotation Xrotation Yrotation 
						End Site
						{
							OFFSET 0.0 0.0 0.0
						}
					}
				}
			}
		}
		JOINT UpperLeg_R
		{
			OFFSET -2.19251 6.46944 0.0
			CHANNELS 6 Xposition Yposition Zposition Zrotation Xrotation Yrotation 
			JOINT LowerLeg_R
			{
				OFFSET -39.0811 -0.00228153 -0.0401928
				CHANNELS 6 Xposition Yposition Zposition Zrotation Xrotation Yrotation 
				JOINT Foot_R
				{
					OFFSET -40.9854 0.0 0.0
					CHANNELS 6 Xposition Yposition Zposition Zrotation Xrotation Yrotation 
					JOINT Toes_R
					{
						OFFSET -11.7543 0.0 0.0
						CHANNELS 6 Xposition Yposition Zposition Zrotation Xrotation Yrotation 
						End Site
						{
							OFFSET 0.0 0.0 0.0
						}
					}
				}
			}
		}
	}
}
MOTION
Frames:	4
Frame Time:	0.0333333
0.000000 0.000000 0.000000 0.000000 0.000000 -0.000000 -3.712010 91.366500 0.482872 84.296700 0.395268 8.384670 15.735700 0.000005 -0.000001 78.801800 85.988100 -76.297800 8.984550 -0.406207 -0.000000 0.147864 -1.724170 5.007180 16.377300 -0.000001 -0.000001 14.934300 1.544530 3.531630 6.456720 -0.000001 -0.000000 -4.141770 -0.358871 12.589700 12.994200 -0.242716 4.980390 -93.080700 8.087060 -69.064100 5.348090 -0.000007 -0.000001 -76.323200 -21.083400 -8.286710 24.328600 0.000019 0.000005 45.905000 -40.640600 -122.254000 22.291600 -0.000001 0.000005 61.264300 4.899190 9.396220 12.994500 -0.242716 -4.980390 86.441000 8.522540 -67.233100 -5.348130 -0.000001 -0.000004 -65.338600 -1.011490 -7.774930 -24.328900 0.000322 -0.000009 18.740000 -19.127800 -134.004000 -22.291500 -0.000108 -0.000004 60.892600 5.670080 -24.816500 -2.192480 -6.469440 -0.000000 -173.637000 3.852590 0.283824 39.081100 -0.000007 -0.000012 0.462651 -0.786774 30.458300 40.985400 -0.000006 -0.000013 0.254280 2.735290 -78.016700 11.754300 -0.000000 0.000003 -0.000677 0.178335 -9.342990 -2.192510 6.469440 -0.000001 -171.526000 12.977400 -172.471000 -39.081100 -0.002282 -0.040193 0.175393 -0.536368 17.786700 -40.985400 0.000008 0.000006 6.184420 2.886150 -72.853000 -11.754300 -0.000006 -0.000006 -0.009090 0.264374 -5.834380
0.000000 0.000000 0.000000 0.000000 0.000000 -0.000000 -3.752840 91.364500 0.486235 84.286300 0.348476 8.462660 15.735700 0.000005 -0.000001 78.781400 85.979600 -76.269700 8.984550 -0.406207 -0.000000 0.164290 -1.730440 5.022790 16.377300 -0.000001 -0.000001 15.137300 1.615170 3.426440 6.456720 -0.000001 -0.000000 -4.082390 -0.323479 12.643000 12.994200 -0.242716 4.980390 -93.061600 8.027210 -69.042500 5.348090 -0.000007 -0.000001 -76.990200 -22.069400 -8.896580 24.328600 0.000019 0.000005 42.459300 -38.325300 -124.126000 22.291600 -0.000001 0.000005 59.122400 4.782210 11.666700 12.994500 -0.242716 -4.980390 86.466000 8.470270 -67.252600 -5.348130 -0.000001 -0.000004 -65.895600 -1.692750 -7.887930 -24.328900 0.000322 -0.000009 18.013100 -17.557200 -132.850000 -22.291500 -0.000108 -0.000004 61.357900 5.678970 -22.889600 -2.192480 -6.469440 -0.000000 -173.616000 3.899860 0.390393 39.081100 -0.000007 -0.000012 0.464354 -0.789787 30.454600 40.985400 -0.000006 -0.000013 0.217672 2.705360 -78.074600 11.754300 -0.000000 0.000003 -0.000581 0.176884 -9.401940 -2.192510 6.469440 -0.000001 -171.452000 12.779900 -172.383000 -39.081100 -0.002282 -0.040193 0.175292 -0.537109 17.753800 -40.985400 0.000008 0.000006 6.190870 2.742870 -72.802600 -11.754300 -0.000006 -0.000006 -0.008891 0.262820 -5.897900
0.000000 0.000000 0.000000 0.000000 0.000000 -0.000000 -3.797550 91.349500 0.490134 84.268900 0.343460 8.547900 15.735700 0.000005 -0.000001 78.836300 85.973300 -76.325800 8.984550 -0.406207 -0.000000 0.178113 -1.724960 5.020610 16.377300 -0.000001 -0.000001 15.272200 1.669240 3.393590 6.456720 -0.000001 -0.000000 -4.024420 -0.263042 12.640500 12.994200 -0.242716 4.980390 -93.018800 7.907040 -69.025200 5.348090 -0.000007 -0.000001 -77.769300 -23.417000 -9.229590 24.328600 0.000019 0.000005 37.868100 -34.743400 -126.237000 22.291600 -0.000001 0.000005 55.145700 4.627620 14.458800 12.994500 -0.242716 -4.980390 86.487800 8.398080 -67.205700 -5.348130 -0.000001 -0.000004 -66.743800 -2.443520 -7.878800 -24.328900 0.000322 -0.000009 16.377200 -15.129100 -131.604000 -22.291500 -0.000108 -0.000004 61.647500 5.675710 -18.345200 -2.192480 -6.469440 -0.000000 -173.554000 3.871130 0.437817 39.081100 -0.000007 -0.000012 0.463178 -0.785451 30.529000 40.985400 -0.000006 -0.000013 0.190909 2.746650 -78.088600 11.754300 -0.000000 0.000003 -0.000593 0.177075 -9.394190 -2.192510 6.469440 -0.000001 -171.432000 12.845100 -172.310000 -39.081100 -0.002282 -0.040193 0.176621 -0.539819 17.798200 -40.985400 0.000008 0.000006 6.235050 2.780220 -72.824400 -11.754300 -0.000006 -0.000006 -0.008868 0.262641 -5.905200
0.000000 0.000000 0.000000 0.000000 0.000000 -0.000000 -3.844070 91.342200 0.485054 84.285800 0.362473 8.586710 15.735700 0.000005 -0.000001 78.588800 85.961500 -76.086400 8.984550 -0.406207 -0.000000 0.194953 -1.762780 5.004790 16.377300 -0.000001 -0.000001 15.324600 1.725160 3.357270 6.456720 -0.000001 -0.000000 -3.968030 -0.130593 12.641800 12.994200 -0.242716 4.980390 -92.977300 7.787460 -69.000800 5.348090 -0.000007 -0.000001 -78.461000 -24.854300 -9.285310 24.328600 0.000019 0.000005 33.944900 -31.306700 -127.667000 22.291600 -0.000001 0.000005 50.592700 4.443050 17.566800 12.994500 -0.242716 -4.980390 86.498200 8.374840 -67.210200 -5.348130 -0.000001 -0.000004 -67.492500 -3.172690 -7.774860 -24.328900 0.000322 -0.000009 12.443000 -11.165800 -131.268000 -22.291500 -0.000108 -0.000004 60.762800 5.622960 -12.816000 -2.192480 -6.469440 -0.000000 -173.530000 3.849680 0.449902 39.081100 -0.000007 -0.000012 0.463028 -0.784429 30.553500 40.985400 -0.000006 -0.000013 0.179941 2.818290 -78.060000 11.754300 -0.000000 0.000003 -0.000438 0.174704 -9.490510 -2.192510 6.469440 -0.000001 -171.443000 12.917800 -172.305000 -39.081100 -0.002282 -0.040193 0.177037 -0.539378 17.851900 -40.985400 0.000008 0.000006 6.268310 2.801710 -72.848300 -11.754300 -0.000006 -0.000006 -0.008990 0.263600 -5.866010
